<?xml version="1.0" encoding="UTF-8"?>
<svg width="303px" height="233px" viewBox="0 0 303 233" version="1.1" xmlns="http://www.w3.org/2000/svg" xmlns:xlink="http://www.w3.org/1999/xlink">
    <!-- Generator: Sketch 55 (78076) - https://sketchapp.com -->
    <title>laptop</title>
    <desc>Created with Sketch.</desc>
    <g id="Page-1" stroke="none" stroke-width="1" fill="none" fill-rule="evenodd">
        <g id="laptop" fill="#FFFFFF" fill-rule="nonzero">
            <path d="M302.985797,211.253223 C302.982838,211.208825 302.98343,211.165019 302.979287,211.120621 C302.963309,210.944804 302.937861,210.772539 302.901762,210.603827 C302.898211,210.587251 302.892885,210.570676 302.888742,210.554101 C302.853826,210.399004 302.810625,210.247458 302.75973,210.099464 C302.746119,210.059802 302.731324,210.021324 302.716529,209.982253 C302.666818,209.847875 302.610598,209.717049 302.548459,209.589774 C302.537807,209.567279 302.530705,209.544192 302.519461,209.521697 L278.781305,162.685855 L278.781305,8.59487853 C278.781305,3.85553026 274.926932,0 270.189006,0 L32.8098105,0 C28.0718848,0 24.2175117,3.85553026 24.2175117,8.59487853 L24.2175117,162.684671 L0.479947266,209.521105 C0.468703125,209.5436 0.461601563,209.566687 0.450949219,209.589182 C0.388810547,209.716457 0.333181641,209.847283 0.282878906,209.98107 C0.268083984,210.02014 0.253289063,210.05921 0.239677734,210.098872 C0.189375,210.247458 0.145582031,210.399596 0.110666016,210.554693 C0.107115234,210.570676 0.101789063,210.586659 0.0982382813,210.602643 C0.0621386719,210.771948 0.0366914063,210.944212 0.0207128906,211.120029 C0.0165703125,211.163835 0.0165703125,211.208233 0.014203125,211.252039 C0.00828515625,211.344387 0,211.435551 0,211.529083 L0,222.791991 C0,228.421077 4.57754883,233 10.2049453,233 L292.795055,233 C298.422451,233 303,228.421077 303,222.791991 L303,211.529083 C303,211.435551 302.991715,211.344387 302.985797,211.253223 Z M33.0950566,8.88080224 L269.904943,8.88080224 L269.904943,159.306864 L33.0950566,159.306864 L33.0950566,8.88080224 Z M31.3823965,168.18589 L271.617012,168.18589 L291.3345,207.088682 L193.818211,207.088682 L188.923459,189.335957 C187.926873,185.721952 184.613994,183.197773 180.866145,183.197773 L122.132672,183.197773 C118.384822,183.197773 115.071352,185.721952 114.075357,189.335365 L109.180605,207.088682 L11.6649082,207.088682 L31.3823965,168.18589 Z M184.609852,207.089274 L118.390148,207.089274 L122.528584,192.077983 L180.471416,192.077983 L184.609852,207.089274 Z M294.123047,222.791399 C294.123047,223.523671 293.527107,224.11979 292.795055,224.11979 L10.2049453,224.11979 C9.47289258,224.11979 8.87695312,223.523671 8.87695312,222.791399 L8.87695312,215.9683 L294.123047,215.9683 L294.123047,222.791399 Z" id="Shape"></path>
            <path d="M256.558344,92 C254.1051,92 252.117279,93.9756075 252.117279,96.4137791 L252.117279,141.172442 L51.8821285,141.172442 L51.8821285,96.4137791 C51.8821285,93.9756075 49.8943081,92 47.4410642,92 C44.9878203,92 43,93.9756075 43,96.4137791 L43,143.078606 C43,146.895054 46.1235485,150 49.9641808,150 L254.035819,150 C257.875859,150 261,146.895642 261,143.078606 L261,96.4137791 C260.999408,93.9767845 259.011588,92 256.558344,92 Z" id="Path"></path>
            <path d="M254.0358,19 L49.9641998,19 C46.1241491,19 43,22.104358 43,25.9213941 L43,72.5862209 C43,75.0243925 44.9878257,77 47.4410763,77 C49.8943268,77 51.8821526,75.0243925 51.8821526,72.5862209 L51.8821526,27.8275582 L252.117847,27.8275582 L252.117847,72.5862209 C252.117847,75.0243925 254.105673,77 256.558924,77 C259.012174,77 261,75.0243925 261,72.5862209 L261,25.9213941 C261,22.1037695 257.876443,19 254.0358,19 Z" id="Path"></path>
        </g>
    </g>
</svg>